# xmcd
#
# Track frame offsets:
#	150
#	24399
#	45464
#	69724
#	89048
#	108242
#	125431
#	149422
#	168890
#	188431
#	205959
#
# Disc length: 2972 seconds
#
# Revision: 0
# Processed by: cddbd v1.5.1PL2 Copyright (c) Steve Scherf et al.
# Submitted via: audiograbber 1.82.02
#
DISCID=950b9a0b
DTITLE=Goldie The Poet - Chronicles
DYEAR=1998
DGENRE=R&B
TTITLE0=Vogues, Tires and Spokes
TTITLE1=Shoot Your Game
TTITLE2=Lady Of Splendor
TTITLE3=It's Okay
TTITLE4=Shot To The Curb
TTITLE5=We Wait
TTITLE6=Heal The Land
TTITLE7=Wisdom
TTITLE8=Motel
TTITLE9=Sanctuary Of Healing
TTITLE10=I Hurl Poems
EXTD=Cashflow420.com
EXTT0=
EXTT1=
EXTT2=
EXTT3=
EXTT4=
EXTT5=
EXTT6=
EXTT7=
EXTT8=
EXTT9=
EXTT10=
PLAYORDER=
